<svg viewBox="0 0 24 24" fill="none" aria-hidden="true" focusable="false" width="16" height="16">
  <path d="M5 6h12a2 2 0 0 1 2 2v5a2 2 0 0 1-2 2h-3.5L10 18.5 9.5 15H5a2 2 0 0 1-2-2V8a2 2 0 0 1 2-2Z" stroke="currentColor" stroke-width="1.5" stroke-linejoin="round" />
  <path d="M9 9.5h.01" stroke="currentColor" stroke-width="1.5" stroke-linecap="round" />
  <path d="M12 9.5h.01" stroke="currentColor" stroke-width="1.5" stroke-linecap="round" />
  <path d="M15 9.5h.01" stroke="currentColor" stroke-width="1.5" stroke-linecap="round" />
  <path d="M17.5 5 18 3l.5 2 .5 2 .5-2" stroke="currentColor" stroke-width="1.5" stroke-linecap="round" stroke-linejoin="round" />
  <path d="M4.5 4.5 4 3l-.5 1.5L3 6l.5-1.5" stroke="currentColor" stroke-width="1.5" stroke-linecap="round" stroke-linejoin="round" />
</svg>
